<?xml version="1.0" encoding="UTF-8" standalone="no"?>
<svg width="159px" height="270px" viewBox="0 0 159 270" version="1.1" xmlns="http://www.w3.org/2000/svg" xmlns:xlink="http://www.w3.org/1999/xlink" xmlns:sketch="http://www.bohemiancoding.com/sketch/ns">
    <!-- Generator: Sketch 3.3 (11970) - http://www.bohemiancoding.com/sketch -->
    <title>face</title>
    <desc>Created with Sketch.</desc>
    <defs></defs>
    <g id="Page-1" stroke="none" stroke-width="1" fill="none" fill-rule="evenodd" sketch:type="MSPage">
        <g id="512" sketch:type="MSArtboardGroup" transform="translate(-315.000000, -125.000000)">
            <g id="face" sketch:type="MSLayerGroup" transform="translate(315.000000, 126.000000)">
                <circle id="Oval-6" fill="#C93C74" sketch:type="MSShapeGroup" transform="translate(55.000000, 80.000000) scale(-1, 1) translate(-55.000000, -80.000000) " cx="55" cy="80" r="3"></circle>
                <path d="M60,76.039112 C60,76.039112 58.1103484,72.4805621 54.8836182,69.5230349 C53.9696055,68.6852773 52.9483084,67.8957446 51.8322862,67.248977 C46.7763816,64.3189319 42,65.039112 42,65.039112" id="Line" stroke="#C93C74" stroke-width="3" stroke-linecap="round" sketch:type="MSShapeGroup" transform="translate(51.000000, 70.500000) scale(-1, 1) rotate(-10.000000) translate(-51.000000, -70.500000) "></path>
                <path d="M74.3611076,33 C74.3611076,33 84.3611076,33 84.3611076,33 L74.3611076,33 C79.8839551,33 82.2154253,46.259504 79.6283368,62.6240978 C79.6283368,62.6240978 72.9864728,102.173692 71.8192695,119.295977 C71.1724738,128.784145 69.0815454,143.324941 69.0815454,143.324941 C66.474521,163.411532 47.9583728,180.297289 27.7222178,181.040421 L11,181.65451" id="Rectangle-6" stroke="#C93C74" stroke-width="3" stroke-linecap="round" stroke-linejoin="round" sketch:type="MSShapeGroup" transform="translate(47.680554, 107.327255) scale(-1, 1) translate(-47.680554, -107.327255) "></path>
                <path d="M66.5,155.5 C66.5,155.5 71.0205538,156.123287 73.2808308,155.934931 C75.0205538,155.789954 78.5,154.5 78.5,154.5" id="Line" stroke="#C93C74" stroke-width="3" stroke-linecap="round" sketch:type="MSShapeGroup" transform="translate(72.500000, 155.235197) scale(-1, 1) translate(-72.500000, -155.235197) "></path>
                <path d="M60.5,150.984375 C60.5,150.984375 59.0827791,152.016648 59.3741687,153.532784 C59.7494458,155.485398 61.5,156.390625 61.5,156.390625" id="Line-Copy-8" stroke="#F6E1EA" stroke-width="2" stroke-linecap="round" sketch:type="MSShapeGroup" transform="translate(60.417345, 153.687500) rotate(10.000000) translate(-60.417345, -153.687500) "></path>
                <path d="M71.330221,174.716152 C91.095699,175.197819 96.7193097,169.844222 102.853558,166.664536 C111.90874,161.970784 114.405914,148.227929 118.40344,143.029343 C125.435541,133.88444 116.937328,113.777678 119.654297,101.54538 C121.939373,91.2575456 126.753566,82.3566576 128.315454,74.7082966 C131.57432,58.7500518 123.96975,46.1040479 119.654297,42.2073041 C113.007779,37.972751 106.099029,33.0488858 89.4893646,31.1454361 C78.6709847,29.9056614 56.9300101,32.83334 42.8736459,33.7303315 C36.9432926,34.1087705 32.3807846,33.3037492 30.5834675,32.9999999 C24.7432889,32.0130007 64.6337564,25.1062031 71.4738313,25.1062032 C80.5572008,25.1062033 99.3916272,27.563695 113.848093,30.0336326 C117.432797,30.6460918 116.850918,35.1516814 123.93287,35.5613802 C131.014823,35.9710791 138.066024,33.0706239 138.205058,33 C147.066395,41.4382569 138.223709,105.065781 136.855678,125.13411 C136.33571,132.761788 133.704369,140.907874 133.704369,140.907874 C128.344796,162.329374 106.086762,179.65062 84.0294048,178.625226 C84.0294048,178.625226 61.2840519,181.215714 42.7336464,169.905838 C55.8626804,174.716156 63.9952144,174.537405 71.330221,174.716152 Z" id="Rectangle-6-Copy" fill-opacity="0.300000012" fill="#F5E1E9" sketch:type="MSShapeGroup"></path>
                <path d="M138,33 C138,33 148,33 148,33 L138,33 C143.522847,33 146.21962,46.3206 144.071902,62.7318893 C144.071902,62.7318893 138.223709,105.065781 136.855678,125.13411 C136.33571,132.761788 132.401117,146.409696 132.401117,146.409696 C127.76131,164.792624 108.650888,180.337081 89.6941121,181.130163 L79.3058906,181.564768" id="Rectangle-6" stroke="#C93C74" stroke-width="3" stroke-linecap="round" stroke-linejoin="round" sketch:type="MSShapeGroup"></path>
                <circle id="Oval-6" fill="#C93C74" sketch:type="MSShapeGroup" cx="104" cy="80" r="3"></circle>
                <path d="M117,76.039112 C117,76.039112 115.110348,72.4805621 111.883618,69.5230349 C110.969605,68.6852773 109.948308,67.8957446 108.832286,67.248977 C103.776382,64.3189319 99,65.039112 99,65.039112" id="Line" stroke="#C93C74" stroke-width="3" stroke-linecap="round" sketch:type="MSShapeGroup" transform="translate(108.000000, 70.500000) rotate(-5.000000) translate(-108.000000, -70.500000) "></path>
                <path d="M77.5,155.5 C77.5,155.5 83.5670866,155.319811 89.800315,151.864858 C96.0335433,148.409906 98.5,144.5 98.5,144.5" id="Line" stroke="#C93C74" stroke-width="3" stroke-linecap="round" sketch:type="MSShapeGroup"></path>
                <path d="M84.5,115.5 C84.5,115.5 82.9772959,118.5 80.1079719,118.5 C77.2386479,118.5 74.5,115.5 74.5,115.5" id="Line" stroke="#C93C74" stroke-width="3" stroke-linecap="round" sketch:type="MSShapeGroup"></path>
                <path d="M108.5,28.5 C108.5,28.5 93.5964177,22.9733787 75.5670209,24.0246164 C59.3748311,24.9687322 40.661414,32.5723566 27.9584811,31.4623915 C20.4723207,30.808261 2.5,16.5 2.5,16.5 C2.5,16.5 11.9220496,21.8776253 20.3694093,18.3186662 C28.816769,14.7597072 33.9498482,10.5261388 35.7941519,9.49999984 C44.3013763,4.76672588 58.5543472,-0.177610543 72.0887026,1.12607346 C80.4610214,1.93252916 87.0176713,2.89135655 95.9878929,8.50181006 C104.958115,14.1122636 108.5,19.4999994 108.5,19.4999994" id="Line" stroke="#C93C74" stroke-width="3" stroke-linecap="round" stroke-linejoin="round" fill="#C93C74" sketch:type="MSShapeGroup"></path>
                <path d="M26,23.3186662 C33.4832342,20.1491688 38.0304579,16.3788855 39.6642651,15.4650382 C47.2005315,11.2497327 59.8267631,6.84646161 71.8163972,8.00748174 C79.2331553,8.72568593 85.0414727,9.57958756 92.9878929,14.5760817" id="Line-Copy-9" stroke="#F6E1EA" stroke-width="2" stroke-linecap="round" stroke-linejoin="round" sketch:type="MSShapeGroup"></path>
                <path d="M114.5,30.5 C114.5,30.5 110.159434,18.2894773 124.989151,8.18421602 C142.818869,-1.92104531 156.321675,16.8907748 156.321675,16.8907748 C156.321675,16.8907748 144.587825,12.5940247 143.517637,21.1142582 C142.447448,29.6344918 148.30707,32.6749589 148.30707,32.6749589 C148.30707,32.6749589 143.866098,29.1522924 139.645611,29.3909591 C135.425125,29.6296259 134.64931,34.1429495 134.64931,34.1429495" id="Line" stroke="#C93C74" stroke-width="3" stroke-linecap="round" stroke-linejoin="round" fill="#C93C74" sketch:type="MSShapeGroup"></path>
                <path d="M120.5,30.5 C120.5,30.5 117.279369,11.1309542 139.306683,11.1309542" id="Line-Copy-7" stroke="#F6E1EA" stroke-width="2" stroke-linecap="round" stroke-linejoin="round" sketch:type="MSShapeGroup"></path>
                <path d="M76.5,167 L85.5,167" id="Line" stroke="#F6E1EA" stroke-width="2" stroke-linecap="round" sketch:type="MSShapeGroup"></path>
                <path d="M14.5,91.984375 L16.5,102.390625" id="Line" stroke="#F6E1EA" stroke-width="2" stroke-linecap="round" sketch:type="MSShapeGroup"></path>
                <path d="M151.141555,80.890625 C151.141555,80.890625 147.044368,76.5160886 144.141555,80.1227939 C138.639945,85.2131158 142.684778,96.5229041 147.610181,104.768154 C149.230609,107.480792 149.595872,109.861734 150.564614,111.580381 C151.564151,113.353664 155.141555,114.421875 155.141555,114.421875" id="Line" stroke="#C93C74" stroke-width="2" stroke-linecap="round" fill-opacity="0.400000006" fill="#F5E1E9" sketch:type="MSShapeGroup" transform="translate(148.320778, 96.559555) scale(-1, 1) translate(-148.320778, -96.559555) "></path>
                <path d="M17.1415554,83.890625 C17.1415554,83.890625 13.0443679,79.5160886 10.1415554,83.1227939 C4.63994497,88.2131158 8.68477798,99.5229041 13.6101806,107.768154 C15.2306088,110.480792 15.5958721,112.861734 16.5646135,114.580381 C17.5641511,116.353664 21.1415554,117.421875 21.1415554,117.421875" id="Line-Copy-13" stroke="#C93C74" stroke-width="2" stroke-linecap="round" fill-opacity="0.200000003" fill="#F5E1E9" sketch:type="MSShapeGroup"></path>
                <path d="M145.5,88.984375 L147.5,99.390625" id="Line" stroke="#F6E1EA" stroke-width="2" stroke-linecap="round" sketch:type="MSShapeGroup" transform="translate(146.500000, 94.187500) scale(-1, 1) translate(-146.500000, -94.187500) "></path>
                <path d="M150.549762,259.497231 C148.508903,249.812271 147.591188,230.69451 140.56287,218.912417 C137.474374,213.734942 132.633924,208.971074 125.017473,204.377828 C117.401021,199.784583 109.09525,197.467912 105.349011,200.67717 C104.307937,201.569018 101.144793,209.872351 85.1935878,208.574681 C100.439858,207 101.566117,193.370366 102.356167,193.207608 C122.182472,189.123195 148.5,207 148.5,207 C148.5,207 153.061703,211.314049 153.342555,212.971074 C156.395037,230.980716 158.5,266 158.5,266 C158.5,266 151.996385,266.362225 150.549762,259.497231 Z" id="Rectangle-11-Copy" fill-opacity="0.400000006" fill="#F5E1E9" sketch:type="MSShapeGroup"></path>
                <path d="M0.58625633,265.391088 C0.839073232,263.899468 4.88050869,226.342827 7.60652949,213.280321 C8.16468291,210.605769 12.5,207 12.5,207 C12.5,207 40.7746532,189.739364 61.3664451,193.709455 C68.4699176,195.079003 55.254125,206 80.653471,206 C106.052817,206 94.3873632,194.849259 102.356167,193.207608 C122.182472,189.123195 148.5,207 148.5,207 C148.5,207 153.061703,211.314049 153.342555,212.971074 C156.395037,230.980716 158.5,266 158.5,266" id="Rectangle-11" stroke="#C93C74" stroke-width="2" stroke-linecap="round" stroke-linejoin="round" sketch:type="MSShapeGroup"></path>
                <g id="Group" transform="translate(20.000000, 246.000000)" sketch:type="MSShapeGroup">
                    <path d="M5.64577323,19.3864594 C2.63506049,16.0541181 3.55522812,4.87606843 3.55522811,2.92507914 C3.5552281,0.974089849 6.13515696,1.07098013 6.13515696,1.07098013 L10.8676855,22.0233611 C10.8676855,22.0233611 7.38641066,21.3130456 5.64577323,19.3864594 Z" id="Rectangle-14-Copy" fill-opacity="0.400000006" fill="#F6E1EA" transform="translate(7.145241, 11.546775) rotate(19.000000) translate(-7.145241, -11.546775) "></path>
                    <path d="M9,1.5 L7,21.5" id="Line-Copy-12" stroke="#C93C74" stroke-width="2" stroke-linecap="round"></path>
                    <path d="M104.702213,20.2312532 C103.642398,16.7322949 106.428885,9.63603401 107.082406,4.96513815 C107.735926,0.294242291 110.041523,1 110.041523,1 L113.20408,1 L114.87,23 C114.87,23 105.314943,22.2541688 104.702213,20.2312532 Z" id="Rectangle-14" fill-opacity="0.300000012" fill="#F6E1EA"></path>
                    <path d="M110.793183,18.4829574 C109.520835,15.3020863 109.844284,8.72299345 108.848543,4.60467105 C108.333034,2.4725582 110,2 110,2 L111,1 L113,21 C113,21 111.528789,20.3219716 110.793183,18.4829574 Z" id="Rectangle-14-Copy-2" fill-opacity="0.700000048" fill="#F6E1EA"></path>
                    <path d="M112,1.5 L114,21.5" id="Line-Copy-11" stroke="#C93C74" stroke-width="2" stroke-linecap="round"></path>
                </g>
                <path d="M69,181.5 L69,201.5" id="Line" stroke="#C93C74" stroke-width="2" stroke-linecap="round" sketch:type="MSShapeGroup"></path>
                <path d="M92,181.5 L92,201.5" id="Line-Copy-10" stroke="#C93C74" stroke-width="2" stroke-linecap="round" sketch:type="MSShapeGroup"></path>
                <path d="M83.3717001,200.863624 C83.330462,199.151714 85.7219309,195.34457 85.7219309,192.932122 C85.721931,189.546516 84.9607625,188.955955 82,186.346094 C80.494962,185.019429 71.8113918,185.381542 71.0028033,184.319227 C70.1942148,183.256912 70.0028033,181 70.0028033,181 L91,181 L91,202 L85.4236751,202 C85.4236751,202 83.4129382,202.575534 83.3717001,200.863624 Z" id="Rectangle-12" fill-opacity="0.400000006" fill="#F5E1E9" sketch:type="MSShapeGroup"></path>
            </g>
        </g>
    </g>
</svg>