<?xml version="1.0" encoding="UTF-8" standalone="no"?>
<svg width="306px" height="306px" viewBox="0 0 306 306" version="1.1" xmlns="http://www.w3.org/2000/svg" xmlns:xlink="http://www.w3.org/1999/xlink" xmlns:sketch="http://www.bohemiancoding.com/sketch/ns">
    <!-- Generator: Sketch 3.3 (11970) - http://www.bohemiancoding.com/sketch -->
    <title>Oval 21 + \s</title>
    <desc>Created with Sketch.</desc>
    <defs></defs>
    <g id="Page-1" stroke="none" stroke-width="1" fill="none" fill-rule="evenodd" sketch:type="MSPage">
        <g id="512-copy-5" sketch:type="MSArtboardGroup" transform="translate(-103.000000, -103.000000)">
            <g id="Oval-21-+-\s" sketch:type="MSLayerGroup" transform="translate(47.000000, 47.000000)">
                <path d="M61.7008379,237.513178 C73.7067998,299.928248 124.399408,348.578331 187.847204,357.531968 C194.756836,358.507042 201.817742,359.011326 208.996429,359.011326 C291.839141,359.011326 358.996429,291.854038 358.996429,209.011326 C358.996429,126.168613 291.839141,59.0113258 208.996429,59.0113258 C127.315646,59.0113258 60.8833751,124.297964 59.0359208,205.534935" id="Oval-21" stroke="#C93C74" stroke-width="5" stroke-linecap="round" sketch:type="MSShapeGroup" transform="translate(209.016175, 209.011326) rotate(34.500000) translate(-209.016175, -209.011326) "></path>
                <path d="M59.1960784,89 L64.5332068,87 L141.446553,287 L136.109424,289 L59.1960784,89 Z M213.528779,205.761543 C196.493063,202.135128 184.64414,197.475677 177.981657,191.783049 C171.319174,186.090421 167.987982,178.268445 167.987982,168.316888 C167.987982,158.280996 172.225764,150.016267 180.701455,143.522454 C189.177145,137.028641 200.203812,133.781784 213.781784,133.781784 C228.540449,133.781784 240.389371,137.302727 249.328906,144.344719 C258.26844,151.38671 262.73814,160.895365 262.73814,172.870968 L255.780519,172.870968 C255.780519,163.678428 251.901156,156.004037 244.142315,149.847565 C236.383474,143.691093 226.263398,140.612903 213.781784,140.612903 C201.806181,140.612903 192.31861,143.227256 185.318786,148.45604 C178.318961,153.684825 174.819102,160.220707 174.819102,168.063884 C174.819102,174.220355 176.126278,179.048475 178.74067,182.548387 C181.355063,186.048299 185.613928,189.210823 191.517394,192.036053 C197.42086,194.861283 206.022925,197.581054 217.323846,200.195446 C228.624767,202.809838 237.564167,205.888028 244.142315,209.430108 C250.720463,212.972187 255.485332,217.167802 258.437065,222.017078 C261.388798,226.866354 262.864643,232.790815 262.864643,239.790639 C262.864643,250.585548 258.437109,259.271947 249.58191,265.850095 C240.726711,272.428243 229.130791,275.717268 214.793801,275.717268 C199.444789,275.717268 187.06878,272.238491 177.665402,265.280835 C168.262023,258.323178 163.560405,249.362694 163.560405,238.399114 L170.391524,238.399114 C171.066206,248.013331 175.303988,255.49797 183.104997,260.853257 C190.906006,266.208545 201.468835,268.886148 214.793801,268.886148 C227.02241,268.886148 236.952734,266.039877 244.585073,260.347249 C252.217411,254.65462 256.033523,247.760319 256.033523,239.664137 C256.033523,223.050096 241.865417,211.749345 213.528779,205.761543 Z" id="\s" fill="#C93C74" sketch:type="MSShapeGroup"></path>
            </g>
        </g>
    </g>
</svg>