<?xml version="1.0" encoding="UTF-8" standalone="no"?>
<svg width="271px" height="460px" viewBox="0 0 271 460" version="1.1" xmlns="http://www.w3.org/2000/svg" xmlns:xlink="http://www.w3.org/1999/xlink" xmlns:sketch="http://www.bohemiancoding.com/sketch/ns">
    <!-- Generator: Sketch 3.3 (11970) - http://www.bohemiancoding.com/sketch -->
    <title>Path 1 Copy + Path 1 Copy 2 + Path 1 Copy 3</title>
    <desc>Created with Sketch.</desc>
    <defs>
        <filter x="-50%" y="-50%" width="200%" height="200%" filterUnits="objectBoundingBox" id="filter-1">
            <feOffset dx="0" dy="0" in="SourceAlpha" result="shadowOffsetOuter1"></feOffset>
            <feGaussianBlur stdDeviation="17.5" in="shadowOffsetOuter1" result="shadowBlurOuter1"></feGaussianBlur>
            <feColorMatrix values="0 0 0 0 0   0 0 0 0 0   0 0 0 0 0  0 0 0 0.14 0" in="shadowBlurOuter1" type="matrix" result="shadowMatrixOuter1"></feColorMatrix>
            <feMerge>
                <feMergeNode in="shadowMatrixOuter1"></feMergeNode>
                <feMergeNode in="SourceGraphic"></feMergeNode>
            </feMerge>
        </filter>
        <filter x="-50%" y="-50%" width="200%" height="200%" filterUnits="objectBoundingBox" id="filter-2">
            <feOffset dx="0" dy="0" in="SourceAlpha" result="shadowOffsetOuter1"></feOffset>
            <feGaussianBlur stdDeviation="17.5" in="shadowOffsetOuter1" result="shadowBlurOuter1"></feGaussianBlur>
            <feColorMatrix values="0 0 0 0 0   0 0 0 0 0   0 0 0 0 0  0 0 0 0.21 0" in="shadowBlurOuter1" type="matrix" result="shadowMatrixOuter1"></feColorMatrix>
            <feMerge>
                <feMergeNode in="shadowMatrixOuter1"></feMergeNode>
                <feMergeNode in="SourceGraphic"></feMergeNode>
            </feMerge>
        </filter>
    </defs>
    <g id="Page-1" stroke="none" stroke-width="1" fill="none" fill-rule="evenodd" sketch:type="MSPage">
        <g id="Desktop-HD-Copy-9" sketch:type="MSArtboardGroup" transform="translate(-582.000000, -259.000000)" stroke="#C10F56" stroke-width="3" stroke-linecap="round" fill="#C10F56" stroke-linejoin="round">
            <g id="Path-1-Copy-+-Path-1-Copy-2-+-Path-1-Copy-3" sketch:type="MSLayerGroup" transform="translate(613.000000, 290.000000)">
                <path d="M161.656865,285.461213 C161.656861,326.791802 132.115469,343.975672 107.422434,343.975658 C82.7293984,343.975643 53.0366198,325.226975 53.0366205,292.749127 C53.0366213,250.86231 94.5860804,221.999997 96.7001636,220.567078 C96.7001636,220.567078 109.205424,210.137536 138.626461,193.809367 C168.047499,177.481199 188.150328,170.481198 188.150328,170.481198 L178.177351,154.58276 C178.177351,154.58276 165.53903,154.308228 127.815344,169.564842 C90.0916578,184.821456 77.1676764,193.053463 77.1676764,193.053463 C77.1676764,193.053463 0.0132405457,228.043145 0.0132425726,295.389772 C0.0132444578,358.031914 52.1744885,398.495541 105.51593,398.495541 C158.857372,398.495541 212.208145,358.190676 210.986757,306.58543" id="Path-1-Copy" filter="url(#filter-1)" sketch:type="MSShapeGroup"></path>
                <path d="M210.986757,306.58543 C209.059533,225.157655 84.6590517,171.295772 74.8841656,86.3479793 C69.9114726,43.1332265 99.7211451,8.90790407 141.683875,8.52513761 C183.646606,8.14237115 200.054551,40.2823786 200.054551,40.2823786 C200.054551,40.2823786 179.190512,0.50555097 135.068922,0.505550973 C108.812457,0.505550975 46.8970843,16.6933397 54.3300581,93.7250172 C61.6671714,169.763245 161.65687,234.721655 161.656865,285.461213" id="Path-1-Copy-2" filter="url(#filter-2)" sketch:type="MSShapeGroup"></path>
                <path d="M161.613055,288.193973 L162.437644,288.157255 L159.102893,255.854731 L210.986757,306.58543 C212.208145,358.190676 158.857372,398.495541 105.51593,398.495541 C52.1744885,398.495541 0.0132444578,358.031914 0.0132425726,295.389772 L53.0373548,293.028687 C53.2071771,325.33454 82.8003348,343.975643 107.422434,343.975658 C131.56406,343.975672 160.339927,327.550684 161.613055,288.193973 Z" id="Path-1-Copy-3" sketch:type="MSShapeGroup"></path>
            </g>
        </g>
    </g>
</svg>
