<?xml version="1.0" encoding="UTF-8" standalone="no"?>
<svg width="80px" height="81px" viewBox="0 0 80 81" version="1.1" xmlns="http://www.w3.org/2000/svg" xmlns:xlink="http://www.w3.org/1999/xlink" xmlns:sketch="http://www.bohemiancoding.com/sketch/ns">
    <!-- Generator: Sketch 3.3 (11970) - http://www.bohemiancoding.com/sketch -->
    <title>Oval-9 Copy 2</title>
    <desc>Created with Sketch.</desc>
    <defs></defs>
    <g id="Page-1" stroke="none" stroke-width="1" fill="none" fill-rule="evenodd" sketch:type="MSPage">
        <g id="Desktop-HD-Copy-3" sketch:type="MSArtboardGroup" transform="translate(-680.000000, -271.000000)" fill="#E10F63">
            <g id="Group-+-DESIGNER,-CODER,-CRE-+-Rectangle-71" sketch:type="MSLayerGroup" transform="translate(507.000000, 271.500000)">
                <g id="Group" transform="translate(73.000000, 0.000000)" sketch:type="MSShapeGroup">
                    <path d="M150.026402,60.1112017 C149.925474,60.1429077 149.818112,60.16 149.706806,60.16 L133.066528,60.16 C132.477501,60.16 132,59.6812384 132,59.0933333 C132,59.0574016 132.001779,59.0218848 132.005253,58.9868659 C132.001779,58.9518709 132,58.9163819 132,58.8804819 L132,26.0261847 C132,25.4373472 132.478762,24.96 133.066667,24.96 C133.65577,24.96 134.133333,25.4379663 134.133333,26.0261847 L134.133333,58.0266667 L149.706806,58.0266667 C149.817956,58.0266667 149.925135,58.0437146 150.025884,58.0753267 C150.126759,58.0437092 150.234161,58.0266667 150.345661,58.0266667 L167.841006,58.0266667 C168.429554,58.0266667 168.906667,58.5054283 168.906667,59.0933333 C168.906667,59.6824371 168.431235,60.16 167.841006,60.16 L150.345661,60.16 C150.234439,60.16 150.127197,60.1429024 150.026402,60.1112017 L150.026402,60.1112017 Z M147.679822,52.2666667 L154.826667,52.2666667 L154.826667,29.7747437 C154.820584,29.7689385 154.814553,29.7630473 154.808576,29.7570699 L146.811505,21.76 L128.8,21.76 L128.8,59.3048083 C128.8,59.8949385 128.321238,60.3733333 127.733333,60.3733333 C127.660009,60.3733333 127.588412,60.3659541 127.51925,60.351891 L127.51925,60.351891 C127.45015,60.3659499 127.378626,60.3733333 127.30538,60.3733333 L111.947953,60.3733333 C111.356977,60.3733333 110.88,59.8957705 110.88,59.3066667 C110.88,58.7187616 111.358139,58.24 111.947953,58.24 L126.666667,58.24 L126.666667,20.908525 C126.666667,20.8721769 126.668483,20.8362526 126.672029,20.800838 L126.672029,20.800838 C126.668483,20.7654767 126.666667,20.7296128 126.666667,20.6933333 C126.666667,20.1042295 127.142155,19.6266667 127.731889,19.6266667 L146.934778,19.6266667 C147.003815,19.6266667 147.071318,19.6332595 147.136697,19.6458481 C147.450491,19.60793 147.777714,19.7092194 148.018091,19.9495968 L156.315172,28.2466782 C156.694475,28.4101626 156.96,28.7872442 156.96,29.2252329 L156.96,53.3347671 C156.96,53.923079 156.481238,54.4 155.893333,54.4 L155.892868,54.4 L155.892868,54.4 L155.892404,54.4 L147.679822,54.4 L139.041286,54.4 C138.45031,54.4 137.973333,53.9224371 137.973333,53.3333333 C137.973333,52.7454283 138.451472,52.2666667 139.041286,52.2666667 L147.679822,52.2666667 L147.679822,52.2666667 Z M140,80 C162.09139,80 180,62.0913901 180,40 C180,17.9086099 162.09139,0 140,0 C117.90861,0 100,17.9086099 100,40 C100,62.0913901 117.90861,80 140,80 L140,80 Z" id="Oval-9-Copy-2"></path>
                </g>
            </g>
        </g>
    </g>
</svg>